<svg xmlns="http://www.w3.org/2000/svg" viewBox="0 0 25.23 25.41"><defs><style>.cls-1{fill:#3093cc;}</style></defs><g id="Capa_2" data-name="Capa 2"><g id="Capa_3" data-name="Capa 3"><path class="cls-1" d="M24.58,7.62H20.26V6.4a.9.9,0,0,0-.91-.9h-.68V4.62a.73.73,0,0,0-.73-.73h-.4V.37A.37.37,0,0,0,17.17,0a.38.38,0,0,0-.37.37V3.89H16V1.75a.38.38,0,0,0-.37-.37.37.37,0,0,0-.37.37V3.89H9.72A.73.73,0,0,0,9,4.62V5.5H8.31a.9.9,0,0,0-.91.9V8.29L4.69,9.53a.37.37,0,0,0,.16.71.28.28,0,0,0,.15,0L7.4,9.11v3.58H3.32a.61.61,0,0,0-.61.61v1.39a.61.61,0,0,0,.61.62H7.4v1.42H3.32a.61.61,0,0,0-.61.62v1.39a.61.61,0,0,0,.61.61H7.4v1.43H3.32a.61.61,0,0,0-.61.61v1.39a.61.61,0,0,0,.61.62H7.4v1.26H.74V12.31c0-.14.14-.23.53-.41l2.16-1a.36.36,0,0,0,.18-.49.37.37,0,0,0-.49-.19L1,11.22H1c-.4.19-1,.45-1,1.09V24.8a.6.6,0,0,0,.6.61h24a.66.66,0,0,0,.65-.65V8.27a.65.65,0,0,0-.65-.65Zm-4.32,3.23h2V12h-2Zm0,4h2V16h-2Zm0,4.05h2v1.13h-2ZM3.45,14.56V13.43h4v1.13Zm0,4V17.48h4v1.13Zm0,4V21.52h4v1.13ZM8.15,6.4a.16.16,0,0,1,.16-.16H13a.38.38,0,0,0,0-.75H9.73V4.63h8.2V5.5H14.77a.38.38,0,0,0-.38.37.37.37,0,0,0,.38.37h4.58a.16.16,0,0,1,.16.16V24.66H16.6V21h.78a.37.37,0,0,0,.37-.37.36.36,0,0,0-.37-.37h-7.1a.36.36,0,0,0-.37.37.37.37,0,0,0,.37.37h.78v3.71H8.15ZM11.81,21h1.65v3.71H11.81Zm2.39,3.71V21h1.65v3.71Zm10.29,0H20.26V20.81h2.16A.61.61,0,0,0,23,20.2V18.8a.62.62,0,0,0-.62-.61H20.26V16.77h2.16a.62.62,0,0,0,.62-.62V14.76a.61.61,0,0,0-.62-.61H20.26V12.72h2.16a.61.61,0,0,0,.62-.61V10.72a.62.62,0,0,0-.62-.62H20.26V8.37h4.23Z"/><path class="cls-1" d="M10.31,10.35h2.23a.51.51,0,0,0,.51-.52V8.14a.51.51,0,0,0-.51-.52H10.31a.51.51,0,0,0-.51.52V9.83a.51.51,0,0,0,.51.52Zm.23-2h1.77V9.6H10.54Z"/><path class="cls-1" d="M15.12,10.35h2.23a.51.51,0,0,0,.51-.52V8.14a.51.51,0,0,0-.51-.52H15.12a.51.51,0,0,0-.51.52V9.83a.51.51,0,0,0,.51.52Zm.23-2h1.77V9.6H15.35Z"/><path class="cls-1" d="M10.31,14.25h2.23a.51.51,0,0,0,.51-.51V12a.51.51,0,0,0-.51-.51H10.31A.51.51,0,0,0,9.8,12v1.7a.51.51,0,0,0,.51.51Zm.23-2h1.77v1.24H10.54Z"/><path class="cls-1" d="M15.12,14.25h2.23a.51.51,0,0,0,.51-.51V12a.51.51,0,0,0-.51-.51H15.12a.51.51,0,0,0-.51.51v1.7a.51.51,0,0,0,.51.51Zm.23-2h1.77v1.24H15.35Z"/><path class="cls-1" d="M10.31,18.16h2.23a.51.51,0,0,0,.51-.52V16a.52.52,0,0,0-.51-.52H10.31A.52.52,0,0,0,9.8,16v1.69a.51.51,0,0,0,.51.52Zm.23-2h1.77v1.24H10.54Z"/><path class="cls-1" d="M15.12,18.16h2.23a.51.51,0,0,0,.51-.52V16a.52.52,0,0,0-.51-.52H15.12a.52.52,0,0,0-.51.52v1.69a.51.51,0,0,0,.51.52Zm.23-2h1.77v1.24H15.35Z"/></g></g></svg>