<svg xmlns="http://www.w3.org/2000/svg" viewBox="0 0 19.84 14.88"><defs><style>.cls-1{fill:#3093cc;}</style></defs><g id="Capa_2" data-name="Capa 2"><g id="Capa_3" data-name="Capa 3"><path class="cls-1" d="M1.65,14.06a1.16,1.16,0,0,1-.18,0c1.14-1.09,4.47-4.25,6.58-6l.72.66a1.65,1.65,0,0,0,2.31,0L11.8,8c2.1,1.8,5.44,5,6.58,6.05a1.06,1.06,0,0,1-.19,0Zm-.78-.61a.85.85,0,0,1,0-.22V1.65a.78.78,0,0,1,0-.22l6.56,6c-2.14,1.84-5.45,5-6.56,6ZM18.19.83a.86.86,0,0,1,.17,0C16.93,2.17,12.18,6.51,10.52,8a.82.82,0,0,1-1.2,0C7.66,6.51,2.91,2.17,1.48.86a1,1,0,0,1,.17,0ZM12.42,7.41l6.55-6a.79.79,0,0,1,.05.22V13.23a.87.87,0,0,1-.05.22c-1.1-1.06-4.41-4.2-6.55-6ZM18.19,0H1.65A1.65,1.65,0,0,0,0,1.65V13.23a1.65,1.65,0,0,0,1.65,1.65H18.19a1.65,1.65,0,0,0,1.65-1.65V1.65A1.65,1.65,0,0,0,18.19,0Z"/></g></g></svg>