<svg xmlns="http://www.w3.org/2000/svg" viewBox="0 0 48.41 48.41"><defs><style>.cls-1{fill:#00f2ff;}</style></defs><g id="Capa_2" data-name="Capa 2"><g id="Capa_3" data-name="Capa 3"><path class="cls-1" d="M24.21,34.36a7,7,0,1,0,7,7,7,7,0,0,0-7-7Zm-3,11.6a3.11,3.11,0,0,1,6,0,5.45,5.45,0,0,1-6,0Zm1.43-5.36a1.56,1.56,0,1,1,1.56,1.57,1.56,1.56,0,0,1-1.56-1.57Zm5.78,4.26a4.77,4.77,0,0,0-2-2.1,3.13,3.13,0,1,0-4.5,0,4.66,4.66,0,0,0-2,2.1,5.46,5.46,0,1,1,8.44,0Z"/><path class="cls-1" d="M24.21,0a7,7,0,0,0-6.54,9.6,3.81,3.81,0,0,0-1.27-.23,2.34,2.34,0,0,0-2.34,2.34v1.93a4.08,4.08,0,0,1-2,3.5A5.71,5.71,0,0,0,9.62,20.2l0,.05L0,19.45V32.8H24.21a2.34,2.34,0,0,0,2.17-3.22,2.34,2.34,0,0,0,1.73-2.25,2.29,2.29,0,0,0-.61-1.56,2.31,2.31,0,0,0,.61-1.56,2.27,2.27,0,0,0-.61-1.56,2.31,2.31,0,0,0,.61-1.57,2.34,2.34,0,0,0-2.34-2.34H21.86a1.56,1.56,0,0,1-1.56-1.56V13.27c0-.15,0-.29,0-.43a7,7,0,0,0,3.95,1.22A7,7,0,0,0,24.21,0ZM9.37,31.23H1.56V21.15l7.81.65ZM21.86,20.3h3.91a.78.78,0,0,1,0,1.56H20.3v1.57h5.47a.78.78,0,1,1,0,1.56H20.3v1.56h5.47a.78.78,0,0,1,0,1.56H20.3v1.56h3.91a.78.78,0,0,1,0,1.56H10.93v-10l.17-.52a4.13,4.13,0,0,1,1.78-2.21,5.67,5.67,0,0,0,2.74-4.84V11.71a.78.78,0,0,1,.78-.78,2.35,2.35,0,0,1,2.34,2.35v3.9a3.12,3.12,0,0,0,3.12,3.12Zm2.35-7.81A5.47,5.47,0,1,1,29.67,7a5.47,5.47,0,0,1-5.46,5.46Z"/><path class="cls-1" d="M41.39,17.18a7,7,0,1,0,7,7,7,7,0,0,0-7-7Zm0,12.49a5.47,5.47,0,1,1,5.46-5.46,5.47,5.47,0,0,1-5.46,5.46Z"/><path class="cls-1" d="M43.73,21.86V25H42.17V20.3H40.6V25H39V23.43H37.48v3.12h7.81V21.86Z"/><rect class="cls-1" x="23.43" y="6.25" width="1.56" height="1.56"/><rect class="cls-1" x="26.55" y="6.25" width="1.56" height="1.56"/><rect class="cls-1" x="20.3" y="6.25" width="1.56" height="1.56"/><path class="cls-1" d="M40.72,13.69l1.05,1.66,1.16-5.83-1.53-.3L41,11.31A20.18,20.18,0,0,0,33.13,5.1l-.66,1.41a18.57,18.57,0,0,1,8.25,7.18Z"/><path class="cls-1" d="M5.1,15.29,6.51,16a18.6,18.6,0,0,1,7.18-8.26l1.66-1L9.52,5.48,9.22,7l2.09.42A20.14,20.14,0,0,0,5.1,15.29Z"/><path class="cls-1" d="M7.69,34.72l-1-1.66L5.48,38.89,7,39.2l.42-2.1a20.25,20.25,0,0,0,7.86,6.22L16,41.9a18.6,18.6,0,0,1-8.26-7.18Z"/><path class="cls-1" d="M43.32,33.13l-1.42-.66a18.51,18.51,0,0,1-7.18,8.25l-1.66,1.05,5.83,1.16.31-1.53L37.1,41a20.29,20.29,0,0,0,6.22-7.85Z"/></g></g></svg>