<svg xmlns="http://www.w3.org/2000/svg" viewBox="0 0 30.85 50.63"><defs><style>.cls-1{fill:#00f2ff;}</style></defs><g id="Capa_2" data-name="Capa 2"><g id="Capa_3" data-name="Capa 3"><path class="cls-1" d="M21,8.9a1,1,0,1,0,1-1,1,1,0,0,0-1,1Z"/><path class="cls-1" d="M25.91,11.87a1,1,0,0,0-1,1V48.65H19V12.86a1,1,0,0,0-1-1H15.89L22,2.77,28,11.87Zm-15.43,15H17V48.65H10.48V26.9ZM2,32.83H8.5V48.65H2V32.83ZM30.74,13.32a1,1,0,0,0,0-1L22.78.44A1,1,0,0,0,22,0a1,1,0,0,0-.82.44L13.22,12.31A1,1,0,0,0,14,13.84h3V24.92H9.49a1,1,0,0,0-1,1v4.94H1a1,1,0,0,0-1,1v17.8a1,1,0,0,0,1,1H25.91a1,1,0,0,0,1-1V13.84h3a1,1,0,0,0,.88-.52Z"/><path class="cls-1" d="M22,11.87a1,1,0,0,0-1,1v5.93a1,1,0,0,0,2,0V12.86a1,1,0,0,0-1-1Z"/></g></g></svg>