<svg xmlns="http://www.w3.org/2000/svg" viewBox="0 0 65 65"><defs><style>.cls-1{fill:#fff;}</style></defs><g id="Capa_2" data-name="Capa 2"><g id="Capa_3" data-name="Capa 3"><path class="cls-1" d="M51.64,23a12.81,12.81,0,0,0-.8-4.37,7.76,7.76,0,0,0-4.46-4.45A13.1,13.1,0,0,0,42,13.4c-2.48-.11-3.22-.13-9.51-.13s-7,0-9.49.13a13.24,13.24,0,0,0-4.36.81A7.62,7.62,0,0,0,16,16a7.1,7.1,0,0,0-1.76,2.7A12.93,12.93,0,0,0,13.4,23c-.11,2.47-.13,3.22-.13,9.49s0,7,.13,9.5a12.92,12.92,0,0,0,.81,4.36,7.76,7.76,0,0,0,4.45,4.46,12.75,12.75,0,0,0,4.37.8c2.46.12,3.21.14,9.49.14s7,0,9.5-.14a12.6,12.6,0,0,0,4.35-.8,7.81,7.81,0,0,0,4.47-4.47,12.68,12.68,0,0,0,.8-4.36c.12-2.48.15-3.21.15-9.49S51.76,25.5,51.64,23ZM32.51,44.58A12.08,12.08,0,1,1,44.58,32.5,12.08,12.08,0,0,1,32.51,44.58ZM45.07,22.77A2.82,2.82,0,1,1,47.89,20,2.83,2.83,0,0,1,45.07,22.77Zm-12.56,1.9a7.84,7.84,0,1,0,7.83,7.83A7.84,7.84,0,0,0,32.51,24.67Z"/><path class="cls-1" d="M32.5,0A32.5,32.5,0,1,0,65,32.5,32.5,32.5,0,0,0,32.5,0ZM55.87,42.19a17.27,17.27,0,0,1-1.1,5.71,12,12,0,0,1-6.88,6.87,17.11,17.11,0,0,1-5.71,1.1c-2.5.11-3.3.13-9.68.13s-7.18,0-9.68-.13a17.22,17.22,0,0,1-5.71-1.1A11.36,11.36,0,0,1,13,52.06a11.34,11.34,0,0,1-2.72-4.16,17.16,17.16,0,0,1-1.1-5.71C9,39.68,9,38.89,9,32.5s0-7.17.14-9.69a17.27,17.27,0,0,1,1.1-5.71A11.32,11.32,0,0,1,13,13a11.38,11.38,0,0,1,4.16-2.72,17.22,17.22,0,0,1,5.71-1.1C25.33,9,26.12,9,32.51,9s7.17,0,9.7.14a16.9,16.9,0,0,1,5.7,1.1,12.1,12.1,0,0,1,6.87,6.87,17,17,0,0,1,1.1,5.71c.11,2.51.12,3.3.12,9.68S56,39.68,55.87,42.19Z"/></g></g></svg>