<svg xmlns="http://www.w3.org/2000/svg" viewBox="0 0 42.88 51.29"><defs><style>.cls-1{fill:#00f2ff;}</style></defs><g id="Capa_2" data-name="Capa 2"><g id="Capa_3" data-name="Capa 3"><path class="cls-1" d="M5.13,51.29H8.55a.85.85,0,0,0,.85-.85v-.77l16.16,1.62h.09a.73.73,0,0,0,.38-.08l15.23-7.62a3,3,0,0,0,1.42-3.72,2.79,2.79,0,0,0-1.6-1.66,3.63,3.63,0,0,0-2.95.32l-8.48,3.09a2.56,2.56,0,0,0-2.3-1.44H9.4v-.86a.85.85,0,0,0-.85-.85H5.13a.86.86,0,0,0-.86.85v.86H.85A.85.85,0,0,0,0,41v7.7a.85.85,0,0,0,.85.85H4.27v.86a.86.86,0,0,0,.86.85Zm4.27-9.4h18a.86.86,0,1,1,0,1.71H18.81v1.71h8.54a2.56,2.56,0,0,0,2.48-1.94l8.93-3.25.09,0a2.13,2.13,0,0,1,1.63-.28,1.11,1.11,0,0,1,.61.68,1.23,1.23,0,0,1-.59,1.56l-15,7.51L9.4,48ZM6,40.18H7.69v9.4H6ZM1.71,47.87v-6H4.27v6Z"/><path class="cls-1" d="M14.53,17.1v4.27h-.85a.86.86,0,0,0-.86.86V26.5H12a.86.86,0,0,0-.86.85v5.13a.86.86,0,0,0,.86.86h.85v4.27a.87.87,0,0,0,.86.86H30.77a.86.86,0,0,0,.86-.86V32.48a.85.85,0,0,0-.86-.85h-.85V28.21h.85a.85.85,0,0,0,.86-.86V23.08h.85a.85.85,0,0,0,.86-.85V17.1a.85.85,0,0,0-.86-.86H15.39a.86.86,0,0,0-.86.86ZM12.82,31.63V28.21h1.71v1.71h1.71V28.21H18v1.71h1.71V28.21h1.71v1.71h1.71V28.21h1.71v1.71H26.5V28.21h1.71v3.42Zm17.1,5.13H14.53V33.34h1.71v1.71H18V33.34h1.71v1.71h1.71V33.34h1.71v1.71h1.71V33.34H26.5v1.71h1.71V33.34h1.71ZM16.24,18H18v1.71h1.71V18h1.71v1.71h1.71V18h1.71v1.71H26.5V18h1.71v1.71h1.71V18h1.71v3.42H16.24ZM18,24.79V23.08h1.71v1.71h1.71V23.08h1.71v1.71h1.71V23.08H26.5v1.71h1.71V23.08h1.71V26.5H14.53V23.08h1.71v1.71Z"/><path class="cls-1" d="M18.56,4.52a.86.86,0,0,0-1.21,0L7.09,14.78a.86.86,0,0,0,0,1.21l2.56,2.57a.86.86,0,0,0,1.21,0L18,11.47,22.48,16a.83.83,0,0,0,1.2,0l8.8-8.8,2,2a.85.85,0,0,0,1.46-.6V.85A.85.85,0,0,0,35.05,0h-7.7a.87.87,0,0,0-.79.53.87.87,0,0,0,.19.93l2,2L23.08,9.05Zm12-.5a.85.85,0,0,0,0-1.21l-1.1-1.1h4.77V6.48l-1.1-1.1a.86.86,0,0,0-1.21,0l-8.8,8.8L18.56,9.65a.86.86,0,0,0-1.21,0l-7.09,7.09L8.9,15.39l9-9,4.53,4.52a.83.83,0,0,0,1.2,0Z"/></g></g></svg>