<svg xmlns="http://www.w3.org/2000/svg" viewBox="0 0 65 65"><defs><style>.cls-1{fill:#fff;}</style></defs><g id="Capa_2" data-name="Capa 2"><g id="Capa_3" data-name="Capa 3"><path class="cls-1" d="M32.5,0A32.5,32.5,0,1,0,65,32.5,32.5,32.5,0,0,0,32.5,0ZM23.06,49.13H15.14V25.32h7.92Zm-4-27.06h-.05A4.1,4.1,0,0,1,14.67,18c0-2.33,1.77-4.11,4.48-4.11a4.13,4.13,0,1,1,0,8.23ZM51.6,49.13H43.68V36.39c0-3.2-1.14-5.38-4-5.38a4.33,4.33,0,0,0-4.06,2.89,5.4,5.4,0,0,0-.26,1.93v13.3H27.44s.1-21.58,0-23.81h7.91v3.37a7.85,7.85,0,0,1,7.13-3.93c5.21,0,9.12,3.4,9.12,10.72Z"/></g></g></svg>