<svg xmlns="http://www.w3.org/2000/svg" viewBox="0 0 255.22 84.52"><defs><style>.cls-1{fill:#d11e1e;}.cls-2{fill:#3093cc;}.cls-3{fill:#44b83c;}.cls-4{fill:#f7c701;}.cls-5{fill:#2c3e50;}</style></defs><g id="Capa_2" data-name="Capa 2"><g id="Capa_3" data-name="Capa 3"><polygon class="cls-1" points="50.74 0 0 25.37 0 25.37 0 25.37 0 50.74 50.74 25.37 50.73 25.37 50.74 25.37 50.74 0"/><polygon class="cls-2" points="25.37 46.47 25.37 46.47 25.37 46.47 25.37 46.47 25.37 46.47 0 59.15 50.74 84.52 50.74 59.15 25.37 46.47"/><polygon class="cls-3" points="101.48 33.78 50.74 59.15 50.74 59.15 50.74 59.15 50.74 84.52 101.47 59.15 101.47 59.15 101.48 59.15 101.48 33.78"/><polygon class="cls-4" points="76.11 38.05 101.47 25.37 50.74 0 50.74 25.37 50.74 25.37 76.11 38.05 76.11 38.05 76.11 38.05 76.11 38.05 76.11 38.05"/><path class="cls-5" d="M113.28,54.06H145a3.05,3.05,0,0,0,3.07-3h0V47.89a3.06,3.06,0,0,0-3.06-3H120.31a8.15,8.15,0,0,1-8.19-8.1V33.67a8.13,8.13,0,0,1,8.11-8.15H152v5.05H120.31a3.1,3.1,0,0,0-3.07,3.1v3.07a3.05,3.05,0,0,0,3.06,3H145a8.15,8.15,0,0,1,8.1,8.1V51a8.1,8.1,0,0,1-8,8.19h-31.8Z"/><path class="cls-5" d="M158.73,25.52h5.08V59.16h-5.08Z"/><path class="cls-5" d="M169.48,51V33.67a8.12,8.12,0,0,1,8.08-8.15h31.75v5.05H177.62a3.08,3.08,0,0,0-3.06,3.1V51a3.05,3.05,0,0,0,3.06,3.05h31.69v5.1H177.62a8.1,8.1,0,0,1-8.14-8.08Z"/><path class="cls-5" d="M214.3,51V33.67a8.12,8.12,0,0,1,8.08-8.15h24.74a8.1,8.1,0,0,1,8.1,8.1V51a8.1,8.1,0,0,1-8,8.15H222.44a8.1,8.1,0,0,1-8.14-8.08Zm5.08-17.34V51a3.05,3.05,0,0,0,3.06,3.05h24.68a3,3,0,0,0,3-3h0V33.67a3.07,3.07,0,0,0-3-3.1H222.44A3.09,3.09,0,0,0,219.38,33.67Z"/></g></g></svg>