<svg xmlns="http://www.w3.org/2000/svg" viewBox="0 0 14.27 22.53"><defs><style>.cls-1{fill:#3093cc;}</style></defs><g id="Capa_2" data-name="Capa 2"><g id="Capa_3" data-name="Capa 3"><path class="cls-1" d="M.75,2.25V1.88A1.14,1.14,0,0,1,1.88.75H12.39a1.14,1.14,0,0,1,1.13,1.13v.37Zm12.77,18.4a1.14,1.14,0,0,1-1.13,1.13H1.88A1.14,1.14,0,0,1,.75,20.65V18.77H13.52v1.88ZM.75,3H13.52V18H.75V3ZM12.39,0H1.88A1.88,1.88,0,0,0,0,1.88V20.65a1.88,1.88,0,0,0,1.88,1.88H12.39a1.88,1.88,0,0,0,1.88-1.88V1.88A1.88,1.88,0,0,0,12.39,0Z"/><path class="cls-1" d="M7.13,19.9a.38.38,0,1,1,0,.75.38.38,0,0,1,0-.75Zm0,1.5A1.13,1.13,0,1,0,6,20.28,1.12,1.12,0,0,0,7.13,21.4Z"/><path class="cls-1" d="M7.51,1.13H6.76a.37.37,0,0,0-.38.37.38.38,0,0,0,.38.38h.75a.38.38,0,0,0,.38-.38.37.37,0,0,0-.38-.37Z"/></g></g></svg>