<svg xmlns="http://www.w3.org/2000/svg" viewBox="0 0 50.7 50"><defs><style>.cls-1{fill:#00f2ff;}</style></defs><g id="Capa_2" data-name="Capa 2"><g id="Capa_3" data-name="Capa 3"><path class="cls-1" d="M45.8,27V11.23a5.68,5.68,0,0,0,4.9-5.58,5.73,5.73,0,0,0-11.45,0H0V37.9H24.58a13.08,13.08,0,0,0,26.12-.8A12.83,12.83,0,0,0,45.8,27ZM45,1.61a4.07,4.07,0,0,1,4.09,4,4.09,4.09,0,0,1-8.18,0,4.07,4.07,0,0,1,4.09-4ZM1.64,7.26H39.5A5.54,5.54,0,0,0,40.4,9L35.4,14a2.42,2.42,0,0,0-2.1,0l-1.65-1.62a2.45,2.45,0,1,0-4.42,0l-4.1,4a2.41,2.41,0,1,0,1.16,1.14l4.1-4a2.42,2.42,0,0,0,2.1,0l1.65,1.62a2.45,2.45,0,1,0,4.42,0l5-4.93a5.78,5.78,0,0,0,2.6,1.07V25.94a13.12,13.12,0,0,0-16.35,2.65V25H22.9v9.68h1.87a12,12,0,0,0-.19,1.61H1.64Zm32.71,8.06a.81.81,0,1,1-.82.81.82.82,0,0,1,.82-.81Zm-5.73-4a.82.82,0,1,1,.82.81.82.82,0,0,1-.82-.81ZM22.9,18.55a.82.82,0,1,1-.82-.81.81.81,0,0,1,.82.81Zm14.72,25a6.45,6.45,0,1,1,6.54-6.45,6.5,6.5,0,0,1-6.54,6.45ZM26.17,30.86a12.68,12.68,0,0,0-1,2.2h-.67V26.61h1.64Zm10.63-5v3.22a8.12,8.12,0,0,0-7.36,8,8,8,0,0,0,.73,3.31L27.33,42a11.17,11.17,0,0,1-1.16-4.92A11.35,11.35,0,0,1,36.8,25.85Zm.82,22.54a11.48,11.48,0,0,1-9.48-5L31,41.8a8.22,8.22,0,0,0,13.26,0l2.85,1.62a11.49,11.49,0,0,1-9.48,5ZM47.91,42l-2.84-1.61a8,8,0,0,0,.73-3.31,8.13,8.13,0,0,0-7.36-8V25.85A11.35,11.35,0,0,1,49.07,37.1,11.17,11.17,0,0,1,47.91,42Z"/><path class="cls-1" d="M37.62,32.26a4.84,4.84,0,1,0,4.91,4.84,4.88,4.88,0,0,0-4.91-4.84Zm0,8.06a3.23,3.23,0,1,1,3.27-3.22,3.25,3.25,0,0,1-3.27,3.22Z"/><rect class="cls-1" x="3.27" y="8.87" width="1.64" height="1.61"/><rect class="cls-1" x="6.54" y="8.87" width="11.45" height="1.61"/><rect class="cls-1" x="3.27" y="12.1" width="1.64" height="1.61"/><rect class="cls-1" x="6.54" y="12.1" width="11.45" height="1.61"/><rect class="cls-1" x="3.27" y="15.32" width="1.64" height="1.61"/><rect class="cls-1" x="6.54" y="15.32" width="11.45" height="1.61"/><rect class="cls-1" x="3.27" y="18.55" width="1.64" height="1.61"/><rect class="cls-1" x="6.54" y="18.55" width="11.45" height="1.61"/><path class="cls-1" d="M3.27,34.68H8.18V26.61H3.27Zm1.64-6.45H6.54v4.83H4.91Z"/><path class="cls-1" d="M9.81,34.68h4.91V28.23H9.81Zm1.64-4.84h1.63v3.22H11.45Z"/><path class="cls-1" d="M16.36,34.68h4.9V21.77h-4.9ZM18,23.39h1.64v9.67H18Z"/></g></g></svg>