<svg xmlns="http://www.w3.org/2000/svg" viewBox="0 0 65 52.81"><defs><style>.cls-1{fill:#fff;}</style></defs><g id="Capa_2" data-name="Capa 2"><g id="Capa_3" data-name="Capa 3"><path class="cls-1" d="M65,6.25a27.75,27.75,0,0,1-7.68,2.11A13.24,13.24,0,0,0,63.18,1a26.6,26.6,0,0,1-8.45,3.23,13.32,13.32,0,0,0-23,9.11,13.69,13.69,0,0,0,.31,3A37.69,37.69,0,0,1,4.53,2.43,13.32,13.32,0,0,0,8.62,20.24a13.14,13.14,0,0,1-6-1.64v.14a13.39,13.39,0,0,0,10.68,13.1,13.64,13.64,0,0,1-3.5.44,11.7,11.7,0,0,1-2.52-.23,13.45,13.45,0,0,0,12.45,9.28A26.75,26.75,0,0,1,3.19,47,24,24,0,0,1,0,46.83a37.48,37.48,0,0,0,20.44,6C45,52.81,58.37,32.5,58.37,14.89c0-.59,0-1.15,0-1.72A26.49,26.49,0,0,0,65,6.25Z"/></g></g></svg>