<svg xmlns="http://www.w3.org/2000/svg" viewBox="0 0 18.59 18.59"><defs><style>.cls-1{fill:#3093cc;}</style></defs><g id="Capa_2" data-name="Capa 2"><g id="Capa_3" data-name="Capa 3"><path class="cls-1" d="M16.34,14.35A7.52,7.52,0,0,0,12,9.8a4,4,0,0,0,1.34-3,4,4,0,1,0-6.72,3,7.53,7.53,0,0,0-4.35,4.55,8.68,8.68,0,1,1,14.09,0Zm-9-4,.08,0,.28.14.23.08,0,0a4,4,0,0,0,2.68,0l0,0,.22-.08.28-.14.08,0,.14-.08a6.85,6.85,0,0,1,4.47,4.69,8.8,8.8,0,0,1-2.81,2.17h0l-.34.16-.08,0-.3.12-.12,0-.27.1-.17.05-.25.07-.2.05-.22.05-.25,0-.19,0-.28,0-.17,0-.31,0-.14,0H8.83l-.14,0-.31,0-.18,0-.27,0-.2,0-.24,0-.22-.05-.2-.05-.25-.07-.17-.05-.27-.1-.12,0L6,17.3l-.07,0-.34-.16h0a8.8,8.8,0,0,1-2.81-2.17,6.85,6.85,0,0,1,4.47-4.69l.13.08Zm3.83-.66a2.82,2.82,0,0,1-.38.21l0,0a3.53,3.53,0,0,1-2.85,0l0,0a2.82,2.82,0,0,1-.38-.21,3.41,3.41,0,1,1,3.71,0ZM9.29,0A9.29,9.29,0,0,0,2.13,15.21h0a9.19,9.19,0,0,0,3.51,2.62l0,0L6,18l.13.05.29.1.18.05.26.08.23.06.23.05.26.05.22,0,.29,0,.19,0c.11,0,.23,0,.34,0H8.8l.49,0,.5,0H10c.11,0,.23,0,.34,0l.19,0,.29,0,.21,0,.27-.05.23-.05.23-.06L12,18.2l.19-.06.29-.1.13-.05.33-.13,0,0a9.19,9.19,0,0,0,3.51-2.62h0A9.29,9.29,0,0,0,9.29,0Z"/></g></g></svg>